<svg width="51" height="51" viewBox="0 0 51 51" fill="none"
    xmlns="http://www.w3.org/2000/svg">
    <path d="M25.5 0C11.4365 0 0 11.4365 0 25.5C0 39.5635 11.4365 51 25.5 51C39.5635 51 51 39.5635 51 25.5C51 11.4365 39.5635 0 25.5 0ZM25.5 3.4002C37.7258 3.4002 47.6 13.2746 47.6 25.5002C47.6 37.7258 37.7256 47.6002 25.5 47.6002C13.2744 47.6002 3.4 37.7258 3.4 25.5002C3.4 13.2746 13.2744 3.4002 25.5 3.4002ZM25.4822 8.46448C25.4229 8.46764 25.364 8.47318 25.3051 8.48227C24.8857 8.53089 24.4996 8.73327 24.2213 9.05068C23.943 9.36847 23.7928 9.77798 23.7999 10.2001V12.5907C22.3579 12.7986 20.982 13.2785 19.8155 14.0781C18.1961 15.1885 17 17.0562 17 19.2665C17 21.5333 18.3163 23.3212 19.869 24.3845C21.4212 25.4474 23.2161 26.0514 24.898 26.6866C26.5799 27.3214 28.1417 27.9784 29.1302 28.7582C30.1188 29.5385 30.5998 30.2571 30.5998 31.7334C30.5998 32.822 30.1686 33.509 29.2717 34.1241C28.3752 34.7387 26.9783 35.1332 25.5 35.1332C21.3417 35.1332 20.2582 32.1761 20.2582 32.1761C20.0752 31.7627 19.7353 31.4389 19.3135 31.2761C18.8918 31.1136 18.4226 31.1251 18.0091 31.3081C17.596 31.4911 17.2723 31.831 17.1095 32.2528C16.947 32.6746 16.9585 33.1437 17.1415 33.5572C17.1415 33.5572 19.0969 37.5578 23.7999 38.3741V40.7999C23.7936 41.2549 23.9699 41.6937 24.2893 42.0178C24.6086 42.3419 25.045 42.5241 25.5 42.5241C25.955 42.5241 26.3913 42.3419 26.7107 42.0178C27.0301 41.6937 27.2064 41.2549 27.2001 40.7999V38.4093C28.642 38.2014 30.018 37.7215 31.1845 36.9219C32.8039 35.8116 34 33.9439 34 31.7336C34 29.2774 32.7813 27.3168 31.2196 26.0843C29.6582 24.8522 27.8202 24.1652 26.102 23.5166C24.3838 22.868 22.7789 22.2521 21.7812 21.5687C20.7836 20.8857 20.4002 20.3998 20.4002 19.2666C20.4002 18.178 20.8314 17.491 21.7283 16.876C22.6248 16.2613 24.0217 15.8668 25.5 15.8668C29.6583 15.8668 30.7418 18.8239 30.7418 18.8239C30.9248 19.2374 31.2647 19.5611 31.6865 19.724C32.1082 19.8864 32.5774 19.875 32.9909 19.692C33.404 19.5089 33.7277 19.169 33.8905 18.7473C34.053 18.3255 34.0415 17.8563 33.8585 17.4428C33.8585 17.4428 31.9031 13.4422 27.2001 12.6259V10.2001C27.2096 9.74 27.0321 9.29571 26.7084 8.96881C26.385 8.64152 25.9423 8.4597 25.4822 8.46444L25.4822 8.46448Z" fill="#0EF4DF"/>
</svg>
