<svg width="53" height="50" viewBox="0 0 53 50" fill="none"
    xmlns="http://www.w3.org/2000/svg">
    <path d="M50.7801 21.3074L48.0661 18.2429L48.4484 14.1887C48.5754 12.7722 48.1795 11.3581 47.334 10.2078C46.4884 9.05752 45.2504 8.24887 43.8488 7.93132L39.8368 7.03507L37.7364 3.53409C36.9968 2.30945 35.8326 1.39219 34.4604 0.952983C33.0881 0.513773 31.6012 0.582518 30.2764 1.14643L26.5004 2.75454L22.7244 1.14643C21.4005 0.585669 19.9158 0.519098 18.546 0.959075C17.1762 1.39905 16.0144 2.31568 15.2762 3.53876L13.1758 7.03974L9.16384 7.93599C7.76039 8.25012 6.5197 9.05684 5.67175 10.2066C4.82381 11.3563 4.42612 12.7711 4.55241 14.1887L4.93473 18.2429L2.22073 21.3074C1.2768 22.3791 0.756836 23.7524 0.756836 25.1736C0.756836 26.5949 1.2768 27.9682 2.22073 29.0399L4.93473 32.1044L4.55241 36.1585C4.42544 37.5751 4.82132 38.9892 5.66685 40.1395C6.51238 41.2897 7.7504 42.0984 9.15204 42.4159L13.164 43.3145L15.2644 46.8155C16.0003 48.0441 17.1637 48.9653 18.5367 49.407C19.9098 49.8486 21.3986 49.7803 22.7244 49.2148L26.5004 47.6044L30.2764 49.2125C31.5998 49.7741 33.0845 49.8411 34.4542 49.4011C35.8239 48.961 36.9852 48.0438 37.7222 46.8202L39.8226 43.3192L43.8346 42.4206C45.2405 42.1072 46.4834 41.2994 47.3321 40.1475C48.1808 38.9956 48.5775 37.5781 48.4484 36.1585L48.0755 32.1044L50.7895 29.0399C51.7321 27.967 52.2504 26.5931 52.2487 25.1719C52.247 23.7506 51.7253 22.378 50.7801 21.3074V21.3074ZM49.0054 27.5088L45.9562 30.9491C45.8508 31.068 45.7708 31.207 45.7213 31.3574C45.6718 31.5079 45.6538 31.6667 45.6683 31.8243L46.0884 36.3779C46.1655 37.2307 45.9276 38.0823 45.4186 38.7749C44.9096 39.4675 44.1641 39.9542 43.3201 40.145L38.8078 41.1509C38.6515 41.1862 38.5042 41.2527 38.3748 41.3462C38.2453 41.4397 38.1365 41.5583 38.055 41.6947L35.695 45.6205C35.2521 46.3584 34.5528 46.9116 33.7277 47.177C32.9026 47.4425 32.008 47.4019 31.211 47.0629L26.9724 45.2471C26.8231 45.1845 26.6626 45.1523 26.5004 45.1523C26.3382 45.1523 26.1777 45.1845 26.0284 45.2471L21.7804 47.0559C20.9833 47.3944 20.0889 47.4347 19.2639 47.1693C18.4389 46.9039 17.7397 46.351 17.2964 45.6135L14.9364 41.6877C14.8548 41.5513 14.746 41.4327 14.6166 41.3392C14.4872 41.2457 14.3398 41.1792 14.1836 41.1439L9.67124 40.1356C8.83075 39.9431 8.08881 39.457 7.58192 38.7665C7.07502 38.0761 6.83727 37.2279 6.9124 36.3779L7.33485 31.8243C7.34936 31.6667 7.33131 31.5079 7.28182 31.3574C7.23232 31.207 7.15241 31.068 7.04692 30.9491L3.99545 27.5088C3.42719 26.8634 3.11418 26.0364 3.11418 25.1806C3.11418 24.3248 3.42719 23.4979 3.99545 22.8525L7.04456 19.4122C7.15005 19.2932 7.22996 19.1543 7.27946 19.0038C7.32895 18.8534 7.34699 18.6945 7.33248 18.5369L6.9124 13.9717C6.83547 13.1194 7.07359 12.2685 7.58263 11.5767C8.09166 10.8849 8.83708 10.399 9.68068 10.2093L14.193 9.20101C14.3474 9.1648 14.4927 9.09819 14.6205 9.00515C14.7482 8.91212 14.8557 8.79456 14.9364 8.65952L17.2964 4.73143C17.7397 3.99397 18.4391 3.44119 19.2642 3.17621C20.0892 2.91124 20.9836 2.95216 21.7804 3.29136L26.0284 5.09786C26.1773 5.16212 26.338 5.19529 26.5004 5.19529C26.6628 5.19529 26.8235 5.16212 26.9724 5.09786L31.2204 3.28902C32.0176 2.95105 32.9118 2.91101 33.7367 3.17634C34.5615 3.44167 35.2608 3.99431 35.7044 4.73143L38.0644 8.65952C38.1462 8.79555 38.2551 8.9137 38.3845 9.00678C38.514 9.09987 38.6612 9.16595 38.8172 9.20101L43.3296 10.2093C44.1707 10.4023 44.913 10.8893 45.4199 11.5806C45.9268 12.2719 46.1642 13.121 46.0884 13.9717L45.666 18.5253C45.6515 18.6828 45.6695 18.8417 45.719 18.9922C45.7685 19.1426 45.8484 19.2816 45.9539 19.4005L49.0054 22.8408C49.5768 23.487 49.8918 24.3163 49.8918 25.1748C49.8918 26.0333 49.5768 26.8626 49.0054 27.5088ZM26.5004 7.3805C22.9418 7.3805 19.4631 8.42411 16.5042 10.3794C13.5454 12.3346 11.2392 15.1137 9.87737 18.3652C8.51555 21.6167 8.15924 25.1945 8.85349 28.6463C9.54774 32.098 11.2614 35.2687 13.7777 37.7573C16.294 40.2458 19.5 41.9406 22.9902 42.6272C26.4804 43.3138 30.0982 42.9614 33.3859 41.6146C36.6736 40.2678 39.4837 37.987 41.4607 35.0608C43.4378 32.1345 44.493 28.6942 44.493 25.1748C44.488 20.457 42.5908 15.9338 39.2176 12.5978C35.8444 9.26178 31.2708 7.38544 26.5004 7.3805V7.3805ZM26.5004 40.6351C23.4086 40.6351 20.3861 39.7284 17.8154 38.0296C15.2446 36.3308 13.2409 33.9162 12.0577 31.0912C10.8745 28.2662 10.565 25.1576 11.1681 22.1586C11.7713 19.1596 13.2602 16.4049 15.4465 14.2427C17.6327 12.0805 20.4182 10.6081 23.4506 10.0115C26.4831 9.41501 29.6263 9.72117 32.4828 10.8913C35.3392 12.0615 37.7807 14.0431 39.4985 16.5855C41.2162 19.1279 42.133 22.117 42.133 25.1748C42.128 29.2736 40.4794 33.2031 37.5488 36.1014C34.6182 38.9997 30.6449 40.6302 26.5004 40.6351V40.6351ZM34.6754 21.7999L29.9554 20.7682L27.5176 16.6558C27.4052 16.4911 27.2537 16.3563 27.0764 16.2631C26.899 16.1698 26.7012 16.1211 26.5004 16.1211C26.2996 16.1211 26.1018 16.1698 25.9245 16.2631C25.7471 16.3563 25.5956 16.4911 25.4832 16.6558L23.0359 20.7682L18.3159 21.7999C18.115 21.8435 17.9291 21.9383 17.7767 22.0748C17.6243 22.2114 17.5106 22.385 17.4469 22.5784C17.3832 22.7718 17.3718 22.9783 17.4137 23.1775C17.4556 23.3766 17.5494 23.5615 17.6858 23.7137L20.886 27.2847L20.414 32.0367C20.3934 32.2399 20.4271 32.4448 20.5116 32.6311C20.5962 32.8173 20.7287 32.9784 20.8959 33.0982C21.0631 33.2179 21.2592 33.2922 21.4645 33.3136C21.6698 33.335 21.8772 33.3027 22.066 33.22L26.491 31.3155L30.916 33.22C31.1047 33.3027 31.3121 33.335 31.5174 33.3136C31.7228 33.2922 31.9188 33.2179 32.086 33.0982C32.2532 32.9784 32.3857 32.8173 32.4703 32.6311C32.5549 32.4448 32.5885 32.2399 32.568 32.0367L32.096 27.2847L35.2961 23.7137C35.4325 23.5615 35.5264 23.3766 35.5683 23.1775C35.6102 22.9783 35.5987 22.7718 35.535 22.5784C35.4714 22.385 35.3577 22.2114 35.2052 22.0748C35.0528 21.9383 34.8669 21.8435 34.666 21.7999H34.6754ZM29.9979 26.1084C29.8905 26.2286 29.8093 26.3693 29.7593 26.5219C29.7094 26.6745 29.6918 26.8357 29.7076 26.9953L30.0404 30.2886L26.9724 28.9722C26.8235 28.9079 26.6628 28.8748 26.5004 28.8748C26.338 28.8748 26.1773 28.9079 26.0284 28.9722L22.9722 30.2886L23.2932 27.0046C23.309 26.845 23.2914 26.6839 23.2415 26.5313C23.1915 26.3787 23.1103 26.2379 23.0029 26.1177L20.7939 23.6507L24.046 22.9505C24.2048 22.9161 24.3547 22.8496 24.4862 22.7552C24.6178 22.6608 24.7283 22.5406 24.8106 22.402L26.5004 19.5499L28.1902 22.3904C28.2725 22.5289 28.383 22.6492 28.5146 22.7436C28.6461 22.8379 28.796 22.9044 28.9548 22.9388L32.2069 23.639L29.9979 26.1084Z" fill="#0EF4DF"/>
</svg>
