<svg width="50" height="50" viewBox="0 0 90 64" fill="none"
    xmlns="http://www.w3.org/2000/svg">
    <path d="M89.9637 47.5468L86.6897 24.7277C84.6667 10.6301 72.356 0 58.0536 0H31.9448C17.6432 0 5.33093 10.6295 3.30873 24.7258L0.0355128 47.5468C-0.0138102 47.8816 0.00263045 48.5639 0.00263045 48.9344C0.00263045 57.2425 6.78992 64 15.1345 64C20.9046 64 26.0925 60.8095 28.6701 55.671L34.13 44.7998H55.8692L61.3292 55.671C63.9075 60.8095 69.0954 64 74.8655 64C83.2101 64 89.9974 57.2425 89.9974 48.9344C89.9974 48.5639 90.0138 47.8816 89.9645 47.5468H89.9637ZM64.2834 9.60002C66.6502 9.60002 68.5685 11.5107 68.5685 13.8663C68.5685 16.2227 66.6494 18.1326 64.2834 18.1326C61.9167 18.1326 59.9983 16.2219 59.9983 13.8663C59.9976 11.5107 61.9167 9.60002 64.2834 9.60002ZM35.3565 25.6001H28.928V32.0005H22.4994V25.6001H16.0708V19.1997H22.4994V12.7993H28.928V19.1997H35.3565V25.6001ZM55.7125 26.667C53.3457 26.667 51.4274 24.7564 51.4274 22.4007C51.4274 20.0444 53.3465 18.1344 55.7125 18.1344C58.0793 18.1344 59.9976 20.0451 59.9976 22.4007C59.9976 24.7564 58.0793 26.667 55.7125 26.667ZM64.2836 35.2006C61.9168 35.2006 59.9985 33.2899 59.9985 30.9343C59.9985 28.5779 61.9176 26.668 64.2836 26.668C66.6504 26.668 68.5687 28.5787 68.5687 30.9343C68.5687 33.2899 66.6504 35.2006 64.2836 35.2006ZM72.8547 26.667C70.488 26.667 68.5696 24.7564 68.5696 22.4007C68.5696 20.0444 70.4887 18.1344 72.8547 18.1344C75.2215 18.1344 77.1398 20.0451 77.1398 22.4007C77.1398 24.7564 75.2207 26.667 72.8547 26.667Z" fill="#0EF4DF"/>
</svg>
