<svg width="50" height="50" viewBox="0 0 30 22" fill="none"
    xmlns="http://www.w3.org/2000/svg">
    <path d="M17.934 14.495C17.847 14.3644 17.7721 14.261 17.7059 14.1545L12.9058 6.48305C12.2368 5.4132 11.5077 5.4132 10.8387 6.48305L4.74283 16.2643C4.70077 16.3342 4.65578 16.404 4.61686 16.474C4.20879 17.2338 4.55387 17.8266 5.47191 17.8508C6.7348 17.8843 7.99791 17.8661 9.26086 17.8661H24.3C25.4999 17.8478 25.86 17.2582 25.2659 16.2977C24.1819 14.5511 23.0929 12.8072 21.9989 11.0668V11.0666C21.9146 10.9254 21.8139 10.7948 21.6988 10.6775C21.5289 10.4965 21.2931 10.3939 21.0463 10.3939C20.7996 10.3939 20.5638 10.4965 20.3938 10.6775C20.2398 10.8382 20.1048 11.0168 19.9918 11.2095C19.3678 12.1973 18.7528 13.1912 18.1348 14.1822L17.934 14.495Z" fill="#0EF4DF"/>
    <path d="M18.1096 6.13617C18.1136 5.59785 18.3285 5.08331 18.7068 4.70549C19.0851 4.32767 19.5962 4.11734 20.1275 4.12114C20.6588 4.12496 21.1669 4.34228 21.54 4.72541C21.9131 5.10874 22.121 5.62629 22.1176 6.16461C22.114 6.70293 21.8997 7.21791 21.5218 7.59616C21.1437 7.9744 20.6328 8.18517 20.1015 8.18197C19.5687 8.18112 19.0585 7.96444 18.6842 7.58026C18.31 7.19587 18.103 6.67601 18.1095 6.13622L18.1096 6.13617Z" fill="#0EF4DF"/>
    <path d="M26.4 2.12759C26.7978 2.12759 27.1793 2.28767 27.4606 2.57283C27.742 2.85779 27.9 3.24429 27.9 3.64735V18.3526C27.9 18.7556 27.742 19.1421 27.4606 19.4271C27.1793 19.7122 26.7978 19.8723 26.4 19.8723H3.6C3.20219 19.8723 2.8207 19.7122 2.53945 19.4271C2.25799 19.1421 2.09999 18.7556 2.09999 18.3526V3.64735C2.09999 3.2443 2.25799 2.85779 2.53945 2.57283C2.8207 2.28767 3.20218 2.12759 3.6 2.12759H26.4ZM26.4 0H3.6C2.64536 0 1.72961 0.384176 1.0545 1.06838C0.379232 1.75238 0 2.68013 0 3.6474V18.3526C0 19.3198 0.379184 20.2476 1.0545 20.9316C1.72961 21.6158 2.6453 22 3.6 22H26.4C27.3546 22 28.2704 21.6158 28.9455 20.9316C29.6208 20.2476 30 19.3199 30 18.3526V3.6474C30 2.68019 29.6208 1.75238 28.9455 1.06838C28.2704 0.384225 27.3547 0 26.4 0Z" fill="#0EF4DF"/>
</svg>
