<svg width="50" height="50" viewBox="0 0 95 81" fill="none"
    xmlns="http://www.w3.org/2000/svg">
    <path d="M80.9998 42.7242V70C80.9967 72.704 79.9213 75.2974 78.0087 77.209C76.097 79.1215 73.5036 80.1969 70.7998 80.2H63.9998C61.2957 80.1969 58.7024 79.1215 56.7908 77.209C54.8783 75.2972 53.8029 72.7039 53.7998 70V63.2C53.7983 62.2984 53.44 61.4347 52.8025 60.7973C52.1651 60.1598 51.3014 59.8015 50.3998 59.8H43.5998C42.6982 59.8015 41.8346 60.1598 41.1971 60.7973C40.5596 61.4347 40.2014 62.2984 40.1998 63.2V70C40.1968 72.704 39.1214 75.2974 37.2088 77.209C35.2971 79.1215 32.7037 80.1969 29.9998 80.2H23.1998C20.4958 80.1969 17.9025 79.1215 15.9909 77.209C14.0784 75.2972 13.003 72.7039 12.9998 70V42.7242C12.99 39.5754 14.4448 36.6003 16.9365 34.6742L44.9136 12.9142L44.9128 12.9149C45.5101 12.4512 46.244 12.2 46.9999 12.2C47.7557 12.2 48.4897 12.4512 49.0869 12.9149L77.0621 34.673C79.5544 36.5992 81.01 39.5748 81.0003 42.7244L80.9998 42.7242ZM93.2664 33.299L53.0259 2.48338C51.2371 1.11503 49.047 0.376547 46.7952 0.383347C44.5442 0.390178 42.3577 1.14075 40.578 2.51971L0.840786 33.3101C-0.120016 34.0539 -0.610296 35.2537 -0.446357 36.4573C-0.282429 37.661 0.511414 38.6856 1.63541 39.1455C2.76015 39.6046 4.04417 39.4301 5.00433 38.6863L44.7416 7.89593C45.3351 7.43677 46.0644 7.1871 46.8142 7.1848C47.5648 7.18177 48.2957 7.42766 48.8921 7.88303L89.1345 38.6987C90.0991 39.4235 91.3764 39.5821 92.4898 39.1153C93.6032 38.6493 94.3856 37.6271 94.5458 36.4311C94.7059 35.2342 94.2194 34.0427 93.2677 33.2998L93.2664 33.299Z" fill="#0EF4DF"/>
</svg>
