<svg width="64" height="64" viewBox="0 0 21 21" fill="none"
    xmlns="http://www.w3.org/2000/svg">
    <path d="M20.4588 3.1598C20.7577 3.1598 21 2.91748 21 2.61856V1.66921C21 0.748822 20.2512 0 19.3308 0H1.66921C0.748822 0 0 0.748822 0 1.66921V2.61856C0 2.91748 0.24232 3.1598 0.541242 3.1598C0.903861 3.1598 1.19885 3.45479 1.19885 3.81741C1.19885 4.18031 0.903861 4.47558 0.541242 4.47558C0.24232 4.47563 0 4.7179 0 5.01687V19.3308C0 20.2512 0.748822 21 1.66921 21H19.3308C20.2512 21 21 20.2512 21 19.3308V5.01687C21 4.71795 20.7577 4.47563 20.4588 4.47563C20.0961 4.47563 19.8012 4.18035 19.8012 3.81745C19.8011 3.45487 20.0962 3.1598 20.4588 3.1598ZM19.9175 2.16349C19.2222 2.39158 18.7186 3.0468 18.7186 3.81745C18.7186 4.58829 19.2221 5.24377 19.9175 5.47194V19.3308C19.9175 19.6544 19.6543 19.9175 19.3308 19.9175H1.66921C1.34564 19.9175 1.08248 19.6543 1.08248 19.3308V5.47194C1.77782 5.24381 2.28137 4.58834 2.28137 3.81745C2.28137 3.0468 1.77786 2.39158 1.08248 2.16349V1.66921C1.08248 1.34572 1.34568 1.08248 1.66921 1.08248H19.3308C19.6544 1.08248 19.9175 1.34568 19.9175 1.66921V2.16349Z" fill="#0EF4DF"/>
    <path d="M15.4094 4.89606H15.2853V4.42976C15.2853 4.19241 15.0621 4 14.7868 4C14.5115 4 14.2884 4.19241 14.2884 4.42976V4.89606H13.5705V4.42976C13.5705 4.19241 13.3474 4 13.0721 4C12.7968 4 12.5736 4.19241 12.5736 4.42976V4.89606H11.8558V4.42976C11.8558 4.19241 11.6327 4 11.3574 4C11.0821 4 10.8589 4.19241 10.8589 4.42976V4.89606H10.1411V4.42976C10.1411 4.19241 9.91793 4 9.64264 4C9.36734 4 9.14418 4.19241 9.14418 4.42976V4.89606H8.42637V4.42976C8.42637 4.19241 8.2032 4 7.92791 4C7.65262 4 7.42945 4.19241 7.42945 4.42976V4.89606H6.71164V4.42976C6.71164 4.19241 6.48848 4 6.21318 4C5.93789 4 5.71473 4.19241 5.71473 4.42976V4.89606H5.59011C4.71331 4.89606 4 5.51106 4 6.26702V14.733C4 15.4892 4.71331 16.1044 5.59011 16.1044H5.71473V16.5702C5.71473 16.8076 5.93789 17 6.21318 17C6.48848 17 6.71164 16.8076 6.71164 16.5702V16.1044H7.42945V16.5702C7.42945 16.8076 7.65262 17 7.92791 17C8.2032 17 8.42637 16.8076 8.42637 16.5702V16.1044H9.14418V16.5702C9.14418 16.8076 9.36734 17 9.64264 17C9.91793 17 10.1411 16.8076 10.1411 16.5702V16.1044H10.8589V16.5702C10.8589 16.8076 11.0821 17 11.3574 17C11.6327 17 11.8558 16.8076 11.8558 16.5702V16.1044H12.5736V16.5702C12.5736 16.8076 12.7968 17 13.0721 17C13.3474 17 13.5705 16.8076 13.5705 16.5702V16.1044H14.2884V16.5702C14.2884 16.8076 14.5115 17 14.7868 17C15.0621 17 15.2853 16.8076 15.2853 16.5702V16.1044H15.4094C16.2865 16.1044 17 15.4892 17 14.733V6.26702C17 5.51106 16.2865 4.89606 15.4094 4.89606ZM16.0031 14.733C16.0031 15.0152 15.7367 15.2448 15.4094 15.2448H5.59011C5.26303 15.2448 4.99695 15.0152 4.99695 14.733V6.26702C4.99695 5.98502 5.26303 5.75561 5.59011 5.75561H15.4094C15.7367 5.75561 16.0031 5.98502 16.0031 6.26702V14.733Z" fill="#0EF4DF"/>
</svg>
