<svg width="64" height="64" viewBox="0 0 21 21" 
    xmlns="http://www.w3.org/2000/svg">
    <path d="M20.3438 8.53125C20.7062 8.53125 21 8.23741 21 7.875C21 7.51259 20.7062 7.21875 20.3438 7.21875H19.3594V5.90625H20.3438C20.7062 5.90625 21 5.61241 21 5.25C21 4.88759 20.7062 4.59375 20.3438 4.59375H19.3594V3.52734C19.3594 2.48702 18.513 1.64062 17.4727 1.64062H16.4062V0.65625C16.4062 0.293836 16.1125 0 15.75 0C15.3875 0 15.0938 0.293836 15.0938 0.65625V1.64062H13.7812V0.65625C13.7812 0.293836 13.4875 0 13.125 0C12.7625 0 12.4688 0.293836 12.4688 0.65625V1.64062H11.1562V0.65625C11.1562 0.293836 10.8625 0 10.5 0C10.1376 0 9.84375 0.293836 9.84375 0.65625V1.64062H8.53125V0.65625C8.53125 0.293836 8.23741 0 7.875 0C7.51259 0 7.21875 0.293836 7.21875 0.65625V1.64062H5.90625V0.65625C5.90625 0.293836 5.61241 0 5.25 0C4.88759 0 4.59375 0.293836 4.59375 0.65625V1.64062H3.52734C2.48702 1.64062 1.64062 2.48702 1.64062 3.52734V4.59375H0.65625C0.293836 4.59375 0 4.88759 0 5.25C0 5.61241 0.293836 5.90625 0.65625 5.90625H1.64062V7.21875H0.65625C0.293836 7.21875 0 7.51259 0 7.875C0 8.23741 0.293836 8.53125 0.65625 8.53125H1.64062V9.84375H0.65625C0.293836 9.84375 0 10.1376 0 10.5C0 10.8624 0.293836 11.1562 0.65625 11.1562H1.64062V12.4688H0.65625C0.293836 12.4688 0 12.7626 0 13.125C0 13.4874 0.293836 13.7812 0.65625 13.7812H1.64062V15.0938H0.65625C0.293836 15.0938 0 15.3876 0 15.75C0 16.1124 0.293836 16.4062 0.65625 16.4062H1.64062V17.4727C1.64062 18.513 2.48702 19.3594 3.52734 19.3594H4.59375V20.3438C4.59375 20.7062 4.88759 21 5.25 21C5.61241 21 5.90625 20.7062 5.90625 20.3438V19.3594H7.21875V20.3438C7.21875 20.7062 7.51259 21 7.875 21C8.23741 21 8.53125 20.7062 8.53125 20.3438V19.3594H9.84375V20.3438C9.84375 20.7062 10.1376 21 10.5 21C10.8625 21 11.1562 20.7062 11.1562 20.3438V19.3594H12.4688V20.3438C12.4688 20.7062 12.7625 21 13.125 21C13.4875 21 13.7812 20.7062 13.7812 20.3438V19.3594H15.0938V20.3438C15.0938 20.7062 15.3875 21 15.75 21C16.1125 21 16.4062 20.7062 16.4062 20.3438V19.3594H17.4727C18.513 19.3594 19.3594 18.513 19.3594 17.4727V16.4062H20.3438C20.7062 16.4062 21 16.1124 21 15.75C21 15.3876 20.7062 15.0938 20.3438 15.0938H19.3594V13.7812H20.3438C20.7062 13.7812 21 13.4874 21 13.125C21 12.7626 20.7062 12.4688 20.3438 12.4688H19.3594V11.1562H20.3438C20.7062 11.1562 21 10.8624 21 10.5C21 10.1376 20.7062 9.84375 20.3438 9.84375H19.3594V8.53125H20.3438ZM18.0469 17.4727C18.0469 17.7893 17.7893 18.0469 17.4727 18.0469H3.52734C3.2107 18.0469 2.95312 17.7893 2.95312 17.4727V3.52734C2.95312 3.2107 3.2107 2.95312 3.52734 2.95312H17.4727C17.7893 2.95312 18.0469 3.2107 18.0469 3.52734V17.4727Z" fill="#0EF4DF"/>
    <path d="M14.4187 16H6.58125C5.70936 16 5 15.2906 5 14.4187V6.58125C5 5.70936 5.70936 5 6.58125 5H14.4187C15.2906 5 16 5.70936 16 6.58125V14.4187C16 15.2906 15.2906 16 14.4187 16ZM6.58125 6.1C6.31588 6.1 6.1 6.31588 6.1 6.58125V14.4187C6.1 14.6841 6.31588 14.9 6.58125 14.9H14.4187C14.6841 14.9 14.9 14.6841 14.9 14.4187V6.58125C14.9 6.31588 14.6841 6.1 14.4187 6.1H6.58125Z" fill="#0EF4DF"/>
</svg>
