<svg width="64" height="64" viewBox="0 0 21 21" fill="none"
    xmlns="http://www.w3.org/2000/svg">
    <g clip-path="url(#clip0_1432_1359)">
        <path d="M20.6133 6.63862C20.5949 6.615 20.5756 6.59225 20.5537 6.57125L20.3394 6.35687C20.4803 6.0655 20.5625 5.74875 20.5625 5.41537C20.5625 4.83525 20.3359 4.29012 19.9255 3.87975L16.6828 0.636124C15.862 -0.184626 14.4323 -0.186376 13.6097 0.636124L0.637 13.6106C0.226625 14.021 0 14.5661 0 15.1471C0 15.7281 0.226625 16.2724 0.637 16.6828L3.87975 19.9264C4.28925 20.3368 4.83437 20.5625 5.41538 20.5625C5.74788 20.5625 6.0655 20.4803 6.35687 20.3403L6.57125 20.5538C6.59225 20.5756 6.61587 20.5949 6.63863 20.6124C6.91862 20.8635 7.2765 21 7.65625 21C8.06575 21 8.45075 20.8408 8.73863 20.5511L13.9886 15.3011C14.2783 15.0115 14.4375 14.6274 14.4375 14.2188C14.4375 13.8399 14.301 13.482 14.0508 13.2011C14.0324 13.1775 14.0131 13.1548 13.9921 13.1329L13.8688 13.0095L15.1988 11.6795L15.3221 11.8029C15.3431 11.8248 15.3667 11.844 15.3895 11.8615C15.6686 12.1135 16.0265 12.25 16.4062 12.25C16.8158 12.25 17.2008 12.0908 17.4886 11.8011L20.5511 8.73863C20.8407 8.44988 21 8.06487 21 7.65625C21 7.27737 20.8635 6.9195 20.6133 6.63862ZM5.41538 18.8125C5.26312 18.8125 5.16337 18.7355 5.117 18.6891L1.87338 15.4455C1.82788 15.3991 1.75 15.2985 1.75 15.1471C1.75 14.9958 1.82788 14.8943 1.87425 14.8479L14.847 1.87425C14.8934 1.82787 14.9949 1.75 15.1471 1.75C15.2994 1.75 15.3991 1.827 15.4455 1.87337L18.6891 5.117C18.7346 5.16337 18.8125 5.264 18.8125 5.41537C18.8125 5.56675 18.7346 5.66825 18.6882 5.71462L5.7155 18.6883C5.66913 18.7346 5.56763 18.8125 5.41538 18.8125Z" fill="#0EF4DF"/>
        <path d="M5.25022 15.75C5.02622 15.75 4.80222 15.6643 4.63159 15.4936C4.28947 15.1515 4.28947 14.5985 4.63159 14.2564L7.25659 11.6314C7.59871 11.2893 8.15171 11.2893 8.49384 11.6314C8.83596 11.9735 8.83596 12.5265 8.49384 12.8686L5.86884 15.4936C5.69822 15.6643 5.47422 15.75 5.25022 15.75Z" fill="#0EF4DF"/>
        <path d="M12.2502 8.75C12.0262 8.75 11.8022 8.66425 11.6316 8.49362C11.2895 8.1515 11.2895 7.5985 11.6316 7.25637L14.2566 4.63137C14.5987 4.28925 15.1517 4.28925 15.4938 4.63137C15.836 4.9735 15.836 5.5265 15.4938 5.86862L12.8688 8.49362C12.6982 8.66425 12.4742 8.75 12.2502 8.75Z" fill="#0EF4DF"/>
    </g>
    <defs>
        <clipPath id="clip0_1432_1359">
            <rect width="21" height="21" fill="white"/>
        </clipPath>
    </defs>
</svg>
