<svg width="50" height="50" viewBox="0 0 81 77" fill="none"
    xmlns="http://www.w3.org/2000/svg">
    <path d="M80.1104 32.1406L62.4525 49.3113L66.6201 73.5511C66.7449 74.2784 66.5917 75.0261 66.1915 75.6466C65.7906 76.2665 65.1719 76.7151 64.4566 76.9028C63.7414 77.0906 62.9813 77.0043 62.3268 76.6611L40.5017 65.2169L18.6765 76.6611C18.022 77.0043 17.2619 77.0906 16.5467 76.9028C15.8315 76.7151 15.2127 76.2665 14.8118 75.6466C14.4117 75.0261 14.2585 74.2784 14.3833 73.5511L18.5508 49.3113L0.892894 32.1406C0.363274 31.6255 0.0469529 30.9312 0.00468884 30.1947C-0.0369142 29.4583 0.199492 28.733 0.667711 28.1618C1.13525 27.5907 1.80091 27.2146 2.53257 27.1085L26.9342 23.5692L37.8463 1.51313C38.4003 0.575744 39.4094 0 40.5003 0C41.5912 0 42.6003 0.575744 43.1536 1.51313L54.0657 23.5692L78.4673 27.1085L78.468 27.1078C79.1996 27.2139 79.8653 27.59 80.3328 28.1612C80.801 28.7323 81.0374 29.4576 80.9952 30.1941C80.9536 30.9306 80.6366 31.6249 80.1076 32.14L80.1104 32.1406Z" fill="#0EF4DF"/>
</svg>
