<svg width="64" height="64" viewBox="0 0 23 23" fill="none"
    xmlns="http://www.w3.org/2000/svg">
    <path d="M20.3047 1.8418H3.59375V0H1.79688V20.3047C1.79688 20.8001 1.39381 21.2031 0.898438 21.2031H0V23H0.898438C2.38472 23 3.59375 21.791 3.59375 20.3047V18.4629H20.3047C21.791 18.4629 23 17.2539 23 15.7676V4.53711C23 3.05083 21.791 1.8418 20.3047 1.8418ZM21.2031 15.7676C21.2031 16.2629 20.8001 16.666 20.3047 16.666H3.59375V11.4102H6.28906V12.4562C5.88196 12.7403 5.61523 13.2119 5.61523 13.7461C5.61523 14.6143 6.31924 15.3184 7.1875 15.3184C8.05576 15.3184 8.75977 14.6143 8.75977 13.7461C8.75977 13.2119 8.49304 12.7403 8.08594 12.4562V9.61328H3.59375V7.45703H5.89758C6.18167 7.86414 6.65335 8.13086 7.1875 8.13086C8.05576 8.13086 8.75977 7.42685 8.75977 6.55859C8.75977 5.69034 8.05576 4.98633 7.1875 4.98633C6.65335 4.98633 6.18167 5.25305 5.89758 5.66016H3.59375V3.63867H20.3047C20.8001 3.63867 21.2031 4.04174 21.2031 4.53711V15.7676ZM14.6895 5.43555C12.0885 5.43555 9.97266 7.55144 9.97266 10.1523C9.97266 12.7533 12.0885 14.8691 14.6895 14.8691C17.2904 14.8691 19.4062 12.7533 19.4062 10.1523C19.4062 7.55144 17.2904 5.43555 14.6895 5.43555ZM17.6067 10.2557C17.0775 9.80244 16.4242 9.49185 15.68 9.34726C15.8065 8.83434 16.0854 8.32827 16.6437 7.98486C17.2363 8.51971 17.6094 9.29321 17.6094 10.1523C17.6094 10.1871 17.608 10.2213 17.6067 10.2557ZM14.6895 7.23242C14.7242 7.23242 14.7584 7.23383 14.7928 7.23505C14.3396 7.76429 14.029 8.41759 13.8844 9.16178C13.3715 9.03526 12.8654 8.75643 12.522 8.19807C13.0568 7.60548 13.8303 7.23242 14.6895 7.23242ZM11.7722 10.049C12.3014 10.5022 12.9547 10.8128 13.6989 10.9574C13.5724 11.4703 13.2935 11.9764 12.7352 12.3198C12.1426 11.785 11.7695 11.0115 11.7695 10.1523C11.7695 10.1176 11.7709 10.0834 11.7722 10.049ZM14.6895 13.0723C14.6547 13.0723 14.6205 13.0709 14.5861 13.0696C15.0394 12.5404 15.3499 11.8871 15.4945 11.1429C16.0075 11.2694 16.5135 11.5483 16.8569 12.1066C16.3221 12.6992 15.5486 13.0723 14.6895 13.0723Z" fill="#0EF4DF"/>
</svg>
