<svg width="50" height="50" viewBox="0 0 83 73" fill="none"
    xmlns="http://www.w3.org/2000/svg">
    <path d="M19.8051 25.3234L33.2709 38.7183C33.4483 38.8948 33.682 38.9831 33.9149 38.9831C34.1473 38.9831 34.3809 38.8948 34.559 38.7183L39.7118 33.5921C39.8828 33.4219 39.9792 33.1914 39.9792 32.9514C39.9792 32.7114 39.8828 32.4809 39.7118 32.3107L26.246 18.9158L33.9756 11.2261C34.4901 10.7143 34.7747 10.0317 34.7747 9.30471C34.7747 8.57765 34.4913 7.89441 33.9756 7.38331L27.5354 0.975692C26.5058 -0.048538 24.7007 -0.048538 23.6713 0.975692L15.9417 8.66538L14.009 6.74267C13.6528 6.38835 13.0764 6.38835 12.7215 6.74267L7.56872 11.8676C7.39766 12.0377 7.30129 12.2682 7.30129 12.5083C7.30129 12.7483 7.39767 12.9788 7.56872 13.149L9.50142 15.0717L1.77178 22.7601C1.25733 23.2725 0.972656 23.9551 0.972656 24.6828C0.972656 25.4098 1.25733 26.0931 1.77178 26.6042L8.21399 33.0118C8.72844 33.5236 9.4146 33.8068 10.1454 33.8068C10.8762 33.8068 11.563 33.5248 12.0768 33.0118L19.8051 25.3234Z" fill="#0EF4DF"/>
    <path d="M82.5277 22.7599L74.7981 15.0702L76.7308 13.1475C76.9018 12.9773 76.9982 12.7481 76.9982 12.5068C76.9982 12.2668 76.9018 12.0363 76.7308 11.8661L71.5779 6.74121C71.2211 6.38689 70.6448 6.38689 70.2892 6.74121L68.3579 8.66392L60.6282 0.974227C59.6 -0.0500028 57.7924 -0.0500028 56.7641 0.974227L50.3239 7.38184C49.2586 8.44162 49.2586 10.1663 50.3239 11.226L58.0522 18.9156L12.3247 64.4084C11.9686 64.7627 11.9686 65.3361 12.3247 65.6892L17.4763 70.8154C17.6537 70.9919 17.8873 71.0802 18.1203 71.0802C18.3539 71.0802 18.5862 70.9919 18.7643 70.8154L64.4934 25.3226L72.2211 33.011C72.7355 33.5228 73.4217 33.806 74.1525 33.806C74.8846 33.806 75.5707 33.524 76.0839 33.011L82.5261 26.6034C83.5926 25.5436 83.5926 23.8189 82.5274 22.7592L82.5277 22.7599Z" fill="#0EF4DF"/>
    <path d="M49.802 44.0839C49.4599 43.7442 48.8561 43.7442 48.5134 44.0839L43.3618 49.2101C43.0057 49.5644 43.0057 50.1384 43.3618 50.4921L65.5352 72.1413C65.7127 72.3178 65.9463 72.4061 66.1786 72.4061C66.4122 72.4061 66.6452 72.3178 66.8226 72.1413L71.9755 67.0151C72.1465 66.8449 72.2416 66.6157 72.2416 66.375C72.2416 66.1337 72.1465 65.9032 71.9755 65.7343L49.802 44.0839Z" fill="#0EF4DF"/>
</svg>
