<?xml version="1.0" encoding="UTF-8"?>
<svg xmlns="http://www.w3.org/2000/svg"
  xmlns:xlink="http://www.w3.org/1999/xlink" viewBox="0 0 58 58" width="58px" height="58px">
  <g id="surface81017574">
    <path d="M 30 5 C 16.191406 5 5 16.191406 5 30 C 5 43.808594 16.191406 55 30 55 C 43.808594 55 55 43.808594 55 30 C 55 16.191406 43.808594 5 30 5 Z M 30 10 C 41.027344 10 50 18.976562 50 30 C 50 31.171875 49.882812 32.324219 49.6875 33.4375 C 49.074219 33.300781 48.164062 33.136719 47.109375 33.125 C 46.328125 33.117188 45.351562 33.242188 44.53125 33.359375 C 44.816406 32.492188 45 31.535156 45 30.546875 C 45 28.144531 43.828125 25.910156 41.953125 24.0625 C 42.472656 22.140625 42.980469 18.839844 41.640625 17.5 C 37.6875 17.5 35.5 20.324219 35.390625 20.46875 C 34.171875 20.175781 32.910156 20 31.5625 20 C 29.835938 20 28.183594 20.3125 26.640625 20.78125 L 27.109375 20.390625 C 27.109375 20.390625 24.914062 17.34375 20.859375 17.34375 C 19.445312 18.769531 20.089844 22.382812 20.625 24.21875 C 18.710938 26.046875 17.5 28.203125 17.5 30.546875 C 17.5 31.367188 17.695312 32.148438 17.890625 32.890625 C 17.199219 32.8125 14.699219 32.578125 13.671875 32.578125 C 12.765625 32.578125 11.359375 32.792969 10.234375 33.046875 C 10.078125 32.050781 10 31.035156 10 30 C 10 18.976562 18.976562 10 30 10 Z M 13.671875 33.203125 C 14.65625 33.203125 17.65625 33.554688 18.046875 33.59375 C 18.097656 33.730469 18.144531 33.855469 18.203125 33.984375 C 17.128906 33.886719 15.050781 33.738281 13.671875 33.90625 C 12.753906 34.011719 11.582031 34.34375 10.546875 34.609375 C 10.46875 34.296875 10.371094 33.996094 10.3125 33.671875 C 11.40625 33.4375 12.84375 33.203125 13.671875 33.203125 Z M 47.109375 33.75 C 48.105469 33.757812 49.015625 33.925781 49.609375 34.0625 C 49.582031 34.226562 49.492188 34.363281 49.453125 34.53125 C 48.820312 34.382812 47.773438 34.167969 46.5625 34.140625 C 45.976562 34.132812 45.039062 34.160156 44.21875 34.21875 C 44.257812 34.140625 44.265625 34.0625 44.296875 33.984375 C 45.148438 33.867188 46.230469 33.742188 47.109375 33.75 Z M 15.234375 34.453125 C 16.640625 34.464844 17.960938 34.5625 18.515625 34.609375 C 19.824219 37.050781 22.472656 38.859375 26.5625 39.609375 C 25.558594 40.167969 24.660156 40.945312 23.984375 41.875 C 23.398438 41.921875 22.785156 41.953125 22.1875 41.953125 C 20.449219 41.953125 19.367188 40.402344 18.4375 39.0625 C 17.5 37.726562 16.347656 37.578125 15.703125 37.5 C 15.050781 37.421875 14.824219 37.792969 15.15625 38.046875 C 17.0625 39.511719 17.746094 41.25 18.515625 42.8125 C 19.210938 44.21875 20.664062 45 22.265625 45 L 22.578125 45 C 22.53125 45.273438 22.5 45.527344 22.5 45.78125 L 22.5 48.515625 C 16.730469 46.179688 12.335938 41.25 10.703125 35.15625 C 11.730469 34.902344 12.882812 34.640625 13.75 34.53125 C 14.152344 34.484375 14.660156 34.441406 15.234375 34.453125 Z M 46.5625 34.765625 C 47.6875 34.796875 48.683594 35.011719 49.296875 35.15625 C 47.921875 40.332031 44.523438 44.636719 40 47.265625 L 40 45.78125 C 40 43.652344 38.320312 40.917969 35.9375 39.609375 C 39.894531 38.886719 42.472656 37.15625 43.828125 34.84375 C 44.777344 34.773438 45.890625 34.746094 46.5625 34.765625 Z M 31.25 45 C 31.933594 45 32.5 45.566406 32.5 46.25 L 32.5 49.84375 C 31.679688 49.949219 30.847656 50 30 50 L 30 46.25 C 30 45.566406 30.566406 45 31.25 45 Z M 26.25 47.5 C 26.933594 47.5 27.5 48.066406 27.5 48.75 L 27.5 49.84375 C 26.660156 49.738281 25.808594 49.582031 25 49.375 L 25 48.75 C 25 48.066406 25.566406 47.5 26.25 47.5 Z M 36.25 47.5 C 36.855469 47.5 37.382812 47.9375 37.5 48.515625 C 36.6875 48.847656 35.859375 49.152344 35 49.375 L 35 48.75 C 35 48.066406 35.566406 47.5 36.25 47.5 Z M 36.25 47.5 "/>
  </g>
</svg>
