<svg width="27" height="23" viewBox="0 0 27 23" fill="none" xmlns="http://www.w3.org/2000/svg">
	<path d="M27 3.12668C26.0066 3.56768 24.939 3.86468 23.8185 3.99855C24.9626 3.31343 25.8412 2.2278 26.2541 0.934053C25.1842 1.56855 23.9985 2.0298 22.7362 2.27843C21.7271 1.2018 20.286 0.529053 18.693 0.529053C15.1166 0.529053 12.4886 3.8658 13.2964 7.32968C8.694 7.09905 4.6125 4.89405 1.87987 1.54268C0.428625 4.0323 1.12725 7.28918 3.59325 8.93843C2.6865 8.90918 1.8315 8.66055 1.08562 8.24543C1.02487 10.8116 2.86425 13.2123 5.52825 13.7467C4.74862 13.9582 3.89475 14.0077 3.02625 13.8412C3.7305 16.0417 5.77575 17.6426 8.20125 17.6876C5.8725 19.5134 2.9385 20.3291 0 19.9826C2.45138 21.5542 5.364 22.4711 8.4915 22.4711C18.7763 22.4711 24.5869 13.7849 24.2359 5.9943C25.3181 5.21243 26.2575 4.23705 27 3.12668Z" fill="white" />
</svg>
