<svg width="58" height="58" viewBox="0 0 58 58" fill="none"
	xmlns="http://www.w3.org/2000/svg">
	<g clip-path="url(#clip0_2131_1529)">
		<path d="M31.8082 45.9022C33.2799 45.9022 33.8817 44.921 33.8647 43.691C33.7898 39.0582 35.5903 36.5642 38.8407 39.8146C42.4367 43.4106 43.181 45.9022 47.5479 45.9022H55.2813C57.2339 45.9022 58.0024 45.2739 58.0024 44.2879C58.0024 42.2023 54.5683 38.5217 51.6587 35.8199C47.5842 32.0378 47.3933 31.9484 50.9023 27.3954C55.2547 21.7428 60.9483 14.5 55.912 14.5H46.2913C44.4256 14.5 44.2903 15.5513 43.6257 17.1173C41.2211 22.7892 36.6512 30.1359 34.916 29.0121C33.1011 27.84 33.9324 23.1976 34.0702 16.298C34.1064 14.4759 34.0968 13.2265 31.3128 12.5788C29.7927 12.2284 28.3137 12.0834 26.941 12.0834C21.4479 12.0834 17.6586 14.3865 19.8118 14.7876C23.6084 15.4957 23.2435 23.71 22.359 27.2576C20.8172 33.4346 15.022 22.3663 12.6078 16.8539C12.0253 15.5295 11.8465 14.5 9.76817 14.5H1.90192C0.712917 14.5 0 14.8867 0 15.747C0 17.2019 7.15333 31.987 13.9828 39.3579C20.6432 46.5475 27.2262 45.9022 31.8082 45.9022V45.9022Z" fill="#0EF4DF"/>
	</g>
	<defs>
		<clipPath id="clip0_2131_1529">
			<rect width="58" height="58" fill="white"/>
		</clipPath>
	</defs>
</svg>
