<svg width="124" height="60" viewBox="0 0 124 60" fill="none" xmlns="http://www.w3.org/2000/svg">
<path d="M34.0805 57.6985L4.43097 60L0 15.4202L2.3566 15.2344C3.65508 15.1331 4.60549 13.9392 4.47086 12.5803L4.24148 10.2838C4.20861 9.96144 4.24087 9.63581 4.33637 9.3261C4.43188 9.01638 4.58868 8.72885 4.79754 8.48045C5.0064 8.23206 5.26308 8.02785 5.55246 7.87985C5.84183 7.73185 6.15802 7.64306 6.4824 7.61872L22.838 6.35424C23.501 6.30675 24.1565 6.51763 24.6663 6.9424C25.1762 7.36716 25.5004 7.97258 25.5706 8.63091L25.797 10.9255L26.0433 13.3988L34.4255 12.7472L65.4244 13.221L68.52 50.5238L62.8783 55.4665L34.0795 57.6985H34.0805Z" fill="#C6C5C5"/>
<path d="M45.5228 0L8.55321 19.156L4.58398 60.001L41.402 57.1204L62.1058 55.5013L75.3399 54.4683L79.3051 13.6253L45.5228 0Z" fill="#066BC6"/>
<path d="M28.2425 43.4116L24.026 36.5696H20.5953V43.4116H16.4805V24.1572H25.5239C29.553 24.1572 32.0163 26.7845 32.0163 30.3634C32.0163 33.7705 30.288 35.5882 28.2016 36.0799L32.9647 43.4106H28.2425V43.4116ZM27.8137 30.3624C27.8137 28.7463 26.5671 27.7649 24.9166 27.7649H20.5983V32.9599H24.9166C26.5671 32.9599 27.8147 31.9805 27.8147 30.3624H27.8137ZM35.5367 43.4116V24.1572H49.2196V27.7659H39.6516V31.8355H48.1834V35.4442H39.6516V39.8049H49.2186V43.4126H35.5357L35.5367 43.4116ZM51.5094 33.7983C51.5094 27.7073 56.1468 23.8394 61.7994 23.8394C65.8285 23.8394 68.3516 25.8588 69.7997 28.1404L66.379 29.988C65.5113 28.6311 63.8588 27.4749 61.7994 27.4749C58.2909 27.4749 55.7409 30.1608 55.7409 33.7983C55.7409 37.4358 58.2919 40.1207 61.7994 40.1207C63.5098 40.1207 65.1344 39.3698 65.9152 38.6486V36.5925H60.8141V32.9639H70.0291V40.1515C68.0594 42.3467 65.3069 43.79 61.7994 43.79C56.1478 43.79 51.5094 39.8635 51.5094 33.8003V33.7983Z" fill="white"/>
<path d="M80.0605 41.3912C80.0605 40.1217 81.1336 39.0519 82.4082 39.0519C83.6847 39.0519 84.7558 40.1197 84.7558 41.3902C84.7558 42.6596 83.6857 43.7275 82.4082 43.7275C81.1336 43.7275 80.0605 42.6606 80.0605 41.3892V41.3912ZM99.794 43.4116L95.1645 36.5697H92.1497V43.4116H88.0339V24.1572H97.0773C101.106 24.1572 103.572 26.7845 103.572 30.3634C103.572 33.7705 101.428 35.5883 99.3402 36.08L104.518 43.4106H99.794V43.4116ZM99.3691 30.3624C99.3691 28.7463 98.1195 27.7649 96.467 27.7649H92.1497V32.96H96.468C98.1205 32.96 99.3701 31.9806 99.3701 30.3624H99.3691ZM106.674 35.7323V24.1572H110.849V35.5873C110.849 38.2742 111.998 40.1207 114.984 40.1207C117.968 40.1207 119.088 38.2752 119.088 35.5883V24.1572H123.294V35.7035C123.294 40.4962 120.866 43.7592 114.985 43.7592C109.099 43.7573 106.675 40.4674 106.675 35.7333L106.674 35.7323Z" fill="#ffffff"/>
</svg>
