<svg width="68" height="68" viewBox="0 0 68 68" fill="none"
    xmlns="http://www.w3.org/2000/svg">
    <path d="M54.3998 8.9248H13.5998C12.3605 8.92708 11.1728 9.42039 10.2966 10.2966C9.42038 11.1727 8.92704 12.3605 8.9248 13.5998V40.7998C8.92708 42.0391 9.42039 43.2268 10.2966 44.103C11.1727 44.9792 12.3605 45.4726 13.5998 45.4748H54.3998C55.6391 45.4725 56.8268 44.9792 57.703 44.103C58.5792 43.2269 59.0726 42.0391 59.0748 40.7998V13.5998C59.0725 12.3605 58.5792 11.1728 57.703 10.2966C56.8269 9.42038 55.6391 8.92704 54.3998 8.9248ZM54.2215 11.4748L34.0002 27.9823L13.7789 11.4748H54.2215ZM56.5248 40.8003C56.5248 41.3638 56.3009 41.9045 55.9025 42.303C55.5041 42.7015 54.9633 42.9253 54.3998 42.9253H13.5998C13.0363 42.9253 12.4956 42.7014 12.0971 42.303C11.6986 41.9046 11.4748 41.3638 11.4748 40.8003V13.6003C11.4782 13.3867 11.5127 13.1749 11.5769 12.9711L33.1921 30.6006C33.6691 31.0085 34.3726 31.0085 34.8496 30.6006L56.4221 12.9711C56.4862 13.1749 56.5207 13.3866 56.5241 13.6003L56.5248 40.8003Z" fill="#0EF4DF"/>
</svg>
