<svg width="59" height="59" viewBox="0 0 59 59" fill="none"
    xmlns="http://www.w3.org/2000/svg">
    <path d="M53.7801 25.3073L51.0661 22.2427L51.4484 18.1886C51.5754 16.7721 51.1795 15.3579 50.334 14.2077C49.4884 13.0574 48.2504 12.2487 46.8488 11.9312L42.8368 11.0349L40.7364 7.53397C39.9968 6.30932 38.8326 5.39207 37.4604 4.95286C36.0881 4.51365 34.6012 4.5824 33.2764 5.1463L29.5004 6.75442L25.7244 5.1463C24.4005 4.58555 22.9158 4.51898 21.546 4.95895C20.1762 5.39893 19.0144 6.31556 18.2762 7.53864L16.1758 11.0396L12.1638 11.9359C10.7604 12.25 9.5197 13.0567 8.67175 14.2065C7.82381 15.3562 7.42612 16.771 7.55241 18.1886L7.93473 22.2427L5.22073 25.3073C4.2768 26.379 3.75684 27.7522 3.75684 29.1735C3.75684 30.5948 4.2768 31.968 5.22073 33.0397L7.93473 36.1043L7.55241 40.1584C7.42544 41.5749 7.82132 42.9891 8.66685 44.1393C9.51238 45.2896 10.7504 46.0983 12.152 46.4158L16.164 47.3144L18.2644 50.8154C19.0003 52.0439 20.1637 52.9652 21.5367 53.4068C22.9098 53.8485 24.3986 53.7802 25.7244 53.2147L29.5004 51.6043L33.2764 53.2124C34.5998 53.774 36.0845 53.841 37.4542 53.4009C38.8239 52.9609 39.9852 52.0437 40.7222 50.82L42.8226 47.3191L46.8346 46.4205C48.2405 46.1071 49.4834 45.2993 50.3321 44.1474C51.1808 42.9955 51.5775 41.5779 51.4484 40.1584L51.0755 36.1043L53.7895 33.0397C54.7321 31.9669 55.2504 30.593 55.2487 29.1718C55.247 27.7505 54.7253 26.3778 53.7801 25.3073V25.3073ZM52.0054 31.5087L48.9562 34.9489C48.8508 35.0679 48.7708 35.2069 48.7213 35.3573C48.6718 35.5078 48.6538 35.6666 48.6683 35.8242L49.0884 40.3778C49.1655 41.2306 48.9276 42.0821 48.4186 42.7747C47.9096 43.4673 47.1641 43.9541 46.3201 44.1448L41.8078 45.1508C41.6515 45.1861 41.5042 45.2526 41.3748 45.3461C41.2453 45.4396 41.1365 45.5581 41.055 45.6946L38.695 49.6204C38.2521 50.3582 37.5528 50.9115 36.7277 51.1769C35.9026 51.4423 35.008 51.4018 34.211 51.0628L29.9724 49.2469C29.8231 49.1844 29.6626 49.1522 29.5004 49.1522C29.3382 49.1522 29.1777 49.1844 29.0284 49.2469L24.7804 51.0558C23.9833 51.3943 23.0889 51.4346 22.2639 51.1692C21.4389 50.9038 20.7397 50.3509 20.2964 49.6134L17.9364 45.6876C17.8548 45.5512 17.746 45.4326 17.6166 45.3391C17.4872 45.2456 17.3398 45.1791 17.1836 45.1438L12.6712 44.1355C11.8308 43.943 11.0888 43.4568 10.5819 42.7664C10.075 42.076 9.83727 41.2278 9.9124 40.3778L10.3348 35.8242C10.3494 35.6666 10.3313 35.5078 10.2818 35.3573C10.2323 35.2069 10.1524 35.0679 10.0469 34.9489L6.99545 31.5087C6.42719 30.8632 6.11418 30.0363 6.11418 29.1805C6.11418 28.3247 6.42719 27.4978 6.99545 26.8524L10.0446 23.4121C10.15 23.2931 10.23 23.1542 10.2795 23.0037C10.329 22.8532 10.347 22.6944 10.3325 22.5368L9.9124 17.9715C9.83547 17.1193 10.0736 16.2684 10.5826 15.5766C11.0917 14.8848 11.8371 14.3989 12.6807 14.2092L17.193 13.2009C17.3474 13.1647 17.4927 13.0981 17.6205 13.005C17.7482 12.912 17.8557 12.7944 17.9364 12.6594L20.2964 8.7313C20.7397 7.99385 21.4391 7.44107 22.2642 7.17609C23.0892 6.91111 23.9836 6.95204 24.7804 7.29124L29.0284 9.09774C29.1773 9.162 29.338 9.19516 29.5004 9.19516C29.6628 9.19516 29.8235 9.162 29.9724 9.09774L34.2204 7.2889C35.0176 6.95093 35.9118 6.91089 36.7367 7.17622C37.5615 7.44155 38.2608 7.99418 38.7044 8.7313L41.0644 12.6594C41.1462 12.7954 41.2551 12.9136 41.3845 13.0067C41.514 13.0997 41.6612 13.1658 41.8172 13.2009L46.3296 14.2092C47.1707 14.4022 47.913 14.8892 48.4199 15.5805C48.9268 16.2718 49.1642 17.1209 49.0884 17.9715L48.666 22.5251C48.6515 22.6827 48.6695 22.8416 48.719 22.992C48.7685 23.1425 48.8484 23.2814 48.9539 23.4004L52.0054 26.8407C52.5768 27.4869 52.8918 28.3162 52.8918 29.1747C52.8918 30.0331 52.5768 30.8625 52.0054 31.5087ZM29.5004 11.3804C25.9418 11.3804 22.4631 12.424 19.5042 14.3793C16.5454 16.3345 14.2392 19.1136 12.8774 22.3651C11.5156 25.6166 11.1592 29.1944 11.8535 32.6462C12.5477 36.0979 14.2614 39.2686 16.7777 41.7571C19.294 44.2457 22.5 45.9405 25.9902 46.6271C29.4804 47.3137 33.0982 46.9613 36.3859 45.6145C39.6736 44.2676 42.4837 41.9869 44.4607 39.0607C46.4378 36.1344 47.493 32.6941 47.493 29.1747C47.488 24.4568 45.5908 19.9337 42.2176 16.5977C38.8444 13.2617 34.2708 11.3853 29.5004 11.3804V11.3804ZM29.5004 44.635C26.4086 44.635 23.3861 43.7282 20.8154 42.0294C18.2446 40.3306 16.2409 37.9161 15.0577 35.0911C13.8745 32.2661 13.565 29.1575 14.1681 26.1585C14.7713 23.1595 16.2602 20.4047 18.4465 18.2426C20.6327 16.0804 23.4182 14.608 26.4506 14.0114C29.4831 13.4149 32.6263 13.7211 35.4828 14.8912C38.3392 16.0614 40.7807 18.0429 42.4985 20.5854C44.2162 23.1278 45.133 26.1169 45.133 29.1747C45.128 33.2735 43.4794 37.203 40.5488 40.1013C37.6182 42.9996 33.6449 44.63 29.5004 44.635V44.635ZM37.6754 25.7997L32.9554 24.7681L30.5176 20.6556C30.4052 20.491 30.2537 20.3562 30.0764 20.2629C29.899 20.1697 29.7012 20.121 29.5004 20.121C29.2996 20.121 29.1018 20.1697 28.9245 20.2629C28.7471 20.3562 28.5956 20.491 28.4832 20.6556L26.0359 24.7681L21.3159 25.7997C21.115 25.8433 20.9291 25.9381 20.7767 26.0747C20.6243 26.2113 20.5106 26.3849 20.4469 26.5783C20.3832 26.7717 20.3718 26.9782 20.4137 27.1774C20.4556 27.3765 20.5494 27.5614 20.6858 27.7136L23.886 31.2846L23.414 36.0366C23.3934 36.2397 23.4271 36.4447 23.5116 36.6309C23.5962 36.8172 23.7287 36.9783 23.8959 37.098C24.0631 37.2178 24.2592 37.2921 24.4645 37.3135C24.6698 37.3349 24.8772 37.3026 25.066 37.2199L29.491 35.3154L33.916 37.2199C34.1047 37.3026 34.3121 37.3349 34.5174 37.3135C34.7228 37.2921 34.9188 37.2178 35.086 37.098C35.2532 36.9783 35.3857 36.8172 35.4703 36.6309C35.5549 36.4447 35.5885 36.2397 35.568 36.0366L35.096 31.2846L38.2961 27.7136C38.4325 27.5614 38.5264 27.3765 38.5683 27.1774C38.6102 26.9782 38.5987 26.7717 38.535 26.5783C38.4714 26.3849 38.3577 26.2113 38.2052 26.0747C38.0528 25.9381 37.8669 25.8433 37.666 25.7997H37.6754ZM32.9979 30.1083C32.8905 30.2284 32.8093 30.3692 32.7593 30.5218C32.7094 30.6744 32.6918 30.8356 32.7076 30.9952L33.0404 34.2884L29.9724 32.9721C29.8235 32.9078 29.6628 32.8746 29.5004 32.8746C29.338 32.8746 29.1773 32.9078 29.0284 32.9721L25.9722 34.2884L26.2932 31.0045C26.309 30.8449 26.2914 30.6837 26.2415 30.5311C26.1915 30.3785 26.1103 30.2378 26.0029 30.1176L23.7939 27.6506L27.046 26.9504C27.2048 26.916 27.3547 26.8495 27.4862 26.7551C27.6178 26.6607 27.7283 26.5405 27.8106 26.4019L29.5004 23.5498L31.1902 26.3902C31.2725 26.5288 31.383 26.6491 31.5146 26.7434C31.6461 26.8378 31.796 26.9043 31.9548 26.9387L35.2069 27.6389L32.9979 30.1083Z" fill="#0EF4DF"/>
</svg>
