<svg width="87" height="55" viewBox="0 0 87 55" fill="none"
    xmlns="http://www.w3.org/2000/svg">
    <path d="M5.09198 0.000868957C2.28983 0.000868957 0 2.26103 0 5.10367V19.7932C0 22.6006 2.28962 24.896 5.09198 24.896H19.8188C22.6549 24.896 24.9445 22.6021 24.9445 19.7932V5.1028C24.9445 2.26082 22.6549 0 19.8188 0L5.09198 0.000868957ZM36.0496 0.000868957C33.2475 0.000868957 30.9239 2.26103 30.9239 5.10367V19.7932C30.9239 22.6006 33.2481 24.896 36.0496 24.896H50.7764C53.5786 24.896 55.8684 22.6021 55.8684 19.7932V5.1028C55.8684 2.26082 53.5779 0 50.7764 0L36.0496 0.000868957ZM66.9726 0.000868957C64.1373 0.000868957 61.8806 2.26103 61.8806 5.10367V19.7932C61.8806 22.6006 64.1373 24.896 66.9726 24.896H81.6994C84.5016 24.896 86.7914 22.6021 86.7914 19.7932V5.1028C86.7914 2.26082 84.5009 0 81.6994 0L66.9726 0.000868957ZM5.09198 1.91752H19.8188C21.595 1.91752 23.0313 3.32161 23.0313 5.10207V19.7916C23.0313 21.5721 21.5959 22.9762 19.8188 22.9762L5.09198 22.9753C3.31574 22.9753 1.91415 21.5712 1.91415 19.7908V5.10295C1.91499 3.32163 3.3157 1.91754 5.09198 1.91754V1.91752ZM36.0496 1.91752H50.7764C52.5552 1.91752 53.9543 3.32161 53.9543 5.10207V19.7916C53.9543 21.5721 52.5553 22.9762 50.7764 22.9762L36.0496 22.9753C34.2734 22.9753 32.8371 21.5712 32.8371 19.7908V5.10295C32.8371 3.32163 34.2734 1.91754 36.0496 1.91754V1.91752ZM66.9726 1.91752H81.6994C83.4782 1.91752 84.8773 3.32161 84.8773 5.10207V19.7916C84.8773 21.5721 83.4783 22.9762 81.6994 22.9762L66.9726 22.9753C65.1964 22.9753 63.7948 21.5712 63.7948 19.7908V5.10295C63.7948 3.32163 65.198 1.91754 66.9726 1.91754V1.91752ZM5.09198 29.1746C2.28983 29.1746 0 31.4703 0 34.2783V49.0025C0 51.8081 2.28962 54.1038 5.09198 54.1038H19.8188C22.6549 54.1038 24.9445 51.8081 24.9445 49.0025V34.2783C24.9445 31.4701 22.6549 29.1746 19.8188 29.1746H5.09198ZM36.0496 29.1746C33.2475 29.1746 30.9239 31.4703 30.9239 34.2783V49.0025C30.9239 51.8081 33.2481 54.1038 36.0496 54.1038H50.7764C53.5786 54.1038 55.8684 51.8081 55.8684 49.0025V34.2783C55.8684 31.4701 53.5779 29.1746 50.7764 29.1746H36.0496ZM66.9726 29.1746C64.1373 29.1746 61.8806 31.4703 61.8806 34.2783V49.0025C61.8806 51.8081 64.1373 54.1038 66.9726 54.1038H81.6994C84.5016 54.1038 86.7914 51.8081 86.7914 49.0025V34.2783C86.7914 31.4701 84.5009 29.1746 81.6994 29.1746H66.9726ZM5.09198 31.1251H19.8188C21.595 31.1251 23.0313 32.5292 23.0313 34.2776V49.0018C23.0313 50.7831 21.5959 52.1846 19.8188 52.1846L5.09198 52.1854C3.31574 52.1854 1.91415 50.7839 1.91415 49.0026V34.2784C1.91499 32.531 3.3157 31.1253 5.09198 31.1253V31.1251ZM36.0496 31.1251H50.7764C52.5552 31.1251 53.9543 32.5292 53.9543 34.2776V49.0018C53.9543 50.7831 52.5553 52.1846 50.7764 52.1846L36.0496 52.1854C34.2734 52.1854 32.8371 50.7839 32.8371 49.0026V34.2784C32.8371 32.531 34.2734 31.1253 36.0496 31.1253V31.1251ZM66.9726 31.1251H81.6994C83.4782 31.1251 84.8773 32.5292 84.8773 34.2776V49.0018C84.8773 50.7831 83.4783 52.1846 81.6994 52.1846L66.9726 52.1854C65.1964 52.1854 63.7948 50.7839 63.7948 49.0026V34.2784C63.7948 32.531 65.198 31.1253 66.9726 31.1253V31.1251Z" fill="#0EF4DF"/>
</svg>
