<svg width="69" height="69" viewBox="0 0 69 69" fill="none"
    xmlns="http://www.w3.org/2000/svg">
    <path fill-rule="evenodd" clip-rule="evenodd" d="M58.6546 9.84047C59.2356 12.823 58.3705 16.0331 56.0598 18.3445C53.462 20.9424 49.7297 21.7129 46.4588 20.6571C46.1065 20.5439 45.7453 20.6309 45.4842 20.8924L25.8823 40.4943C25.6205 40.7553 25.5342 41.1169 25.6482 41.4688C26.7028 44.7402 25.932 48.4713 23.3352 51.0684C21.0238 53.3802 17.8144 54.2454 14.8312 53.6648C14.4727 53.5951 14.202 53.3506 14.0957 53.0025C13.9887 52.654 14.0769 52.2994 14.3352 52.0414L20.171 46.2065C20.5456 45.8311 20.5456 45.2215 20.171 44.8473L16.1788 40.854C15.8045 40.4797 15.1939 40.4797 14.8196 40.854L8.98388 46.6909C8.72628 46.9485 8.37243 47.0363 8.02396 46.9304C7.67434 46.8233 7.43138 46.5527 7.3613 46.1942C6.78104 43.2108 7.64546 40.0007 9.95767 37.6901C12.5552 35.0923 16.2874 34.3217 19.5591 35.3771C19.9103 35.4903 20.2715 35.4033 20.5333 35.1419L40.1342 15.5409C40.3972 15.2791 40.4827 14.9183 40.3695 14.5668C39.3137 11.2951 40.0853 7.56317 42.6825 4.96532C44.9931 2.65352 48.2032 1.78945 51.1865 2.37052C51.545 2.43945 51.8149 2.68357 51.9216 3.03281C52.029 3.38128 51.9404 3.73551 51.6832 3.99273L45.8475 9.82845C45.4732 10.2027 45.4721 10.813 45.8475 11.1877L49.8404 15.1806C50.2147 15.5549 50.825 15.5549 51.1996 15.1806L57.0346 9.34486C57.2925 9.08726 57.6468 8.99948 57.9956 9.10536C58.3437 9.2124 58.5882 9.48386 58.6579 9.84157L58.6546 9.84047ZM60.4131 45.133L47.4953 32.2862L47.4826 32.2739C47.282 32.0771 47.0075 31.9535 46.7041 31.9535C46.413 31.9535 46.1527 32.0713 45.9544 32.255L45.949 32.2573L45.9147 32.2927C45.8327 32.372 45.7723 32.429 45.7642 32.4329C45.626 32.4991 45.4562 32.4752 45.3422 32.3624L44.5467 31.5742C43.9791 31.0136 43.8336 30.1904 44.1632 29.4776C44.2506 29.2897 44.1871 29.0086 44.0396 28.8619L42.6557 27.4931C42.4355 27.2748 42.0793 27.2767 41.861 27.4969L40.3802 28.9932L40.4083 29.0202L35.3014 34.1271L35.2975 34.1248L34.549 34.8818C34.3307 35.1005 34.333 35.459 34.5529 35.678L35.9329 37.0434C36.0765 37.1851 36.3553 37.2598 36.5381 37.1717C37.2505 36.8274 38.0806 36.9626 38.6524 37.5282L39.4471 38.3145C39.5927 38.4589 39.5935 38.6961 39.4494 38.8416L39.4032 38.8878L39.4002 38.8917L39.3963 38.8948L39.3925 38.8986L39.3559 38.936L39.3663 38.9256L39.3559 38.9367C39.1711 39.135 39.0525 39.3965 39.0525 39.6887C39.0525 39.9779 39.1699 40.2366 39.3501 40.4345L39.4179 40.5012L52.3071 53.3194C53.0352 54.0414 54.2173 54.036 54.9388 53.3071L60.4234 47.7678C61.1454 47.0409 61.1389 45.8576 60.4107 45.1361L60.4131 45.133ZM22.1832 12.4122C21.9991 12.2281 21.864 12.0006 21.7889 11.7518L20.541 7.59105C20.412 7.16365 20.1086 6.81017 19.705 6.61958L13.6968 3.77835C13.0626 3.47801 12.3045 3.63473 11.8417 4.16185L11.0277 5.08558C10.6057 5.56496 10.5152 6.25109 10.7971 6.8225L13.6861 12.6825C13.8732 13.0633 14.2079 13.3525 14.6106 13.4841L18.1715 14.6435C18.3621 14.7051 18.5357 14.811 18.679 14.9504L28.2516 24.3867L31.2041 21.4342L22.1817 12.4118L22.1832 12.4122Z" fill="#0EF4DF"/>
</svg>
