<svg wviewBox="0 0 43 43" fill="none"
  xmlns="http://www.w3.org/2000/svg">
  <path fill-rule="evenodd" clip-rule="evenodd" d="M4.875 10.5625C4.875 6.29653 4.92068 4.875 10.5625 4.875C16.2043 4.875 16.25 6.29653 16.25 10.5625C16.25 14.8285 16.268 16.25 10.5625 16.25C4.85701 16.25 4.875 14.8285 4.875 10.5625Z" stroke="#0EF4DF" stroke-width="1.7" stroke-linecap="round" stroke-linejoin="round"/>
  <path fill-rule="evenodd" clip-rule="evenodd" d="M22.75 10.5625C22.75 6.29653 22.7957 4.875 28.4375 4.875C34.0793 4.875 34.125 6.29653 34.125 10.5625C34.125 14.8285 34.143 16.25 28.4375 16.25C22.732 16.25 22.75 14.8285 22.75 10.5625Z" stroke="#0EF4DF" stroke-width="1.7" stroke-linecap="round" stroke-linejoin="round"/>
  <path fill-rule="evenodd" clip-rule="evenodd" d="M4.875 28.4375C4.875 24.1715 4.92068 22.75 10.5625 22.75C16.2043 22.75 16.25 24.1715 16.25 28.4375C16.25 32.7035 16.268 34.125 10.5625 34.125C4.85701 34.125 4.875 32.7035 4.875 28.4375Z" stroke="#0EF4DF" stroke-width="1.7" stroke-linecap="round" stroke-linejoin="round"/>
  <path fill-rule="evenodd" clip-rule="evenodd" d="M22.75 28.4375C22.75 24.1715 22.7957 22.75 28.4375 22.75C34.0793 22.75 34.125 24.1715 34.125 28.4375C34.125 32.7035 34.143 34.125 28.4375 34.125C22.732 34.125 22.75 32.7035 22.75 28.4375Z" stroke="#0EF4DF" stroke-width="1.7" stroke-linecap="round" stroke-linejoin="round"/>
</svg>
