<svg width="77" height="22" viewBox="0 0 77 22" fill="none"
    xmlns="http://www.w3.org/2000/svg">
    <path fill-rule="evenodd" clip-rule="evenodd" d="M20.7491 4.14689e-07V0.00951836C20.7396 0.00951836 17.7414 3.63081e-07 16.9419 2.8649C16.2091 5.49185 14.1437 12.7445 14.0866 12.9444H13.5155C13.5155 12.9444 11.4025 5.52992 10.6601 2.85538C9.86059 -0.00951762 6.85292 4.14689e-07 6.85292 4.14689e-07H0V21.7961H6.85292V8.85169H7.13846H7.42399L11.4215 21.7961H16.1805L20.178 8.86121H20.7491V21.7961H27.602V4.14689e-07H20.7491Z" fill="#656565"/>
    <path fill-rule="evenodd" clip-rule="evenodd" d="M45.7814 0C45.7814 0 43.7732 0.180841 42.8309 2.28431L37.9767 12.9444H37.4057V0H30.5527V21.7961H37.0249C37.0249 21.7961 39.1284 21.6057 40.0707 19.5118L44.8296 8.85169H45.4007V21.7961H52.2536V0H45.7814Z" fill="#656565"/>
    <path fill-rule="evenodd" clip-rule="evenodd" d="M55.2993 9.89844V21.7959H62.1522V14.8478H69.5762C72.8123 14.8478 75.5535 12.7824 76.5719 9.89844H55.2993Z" fill="#656565"/>
    <path fill-rule="evenodd" clip-rule="evenodd" d="M69.5761 0H54.3379C55.0993 4.14982 58.2117 7.4811 62.2378 8.56615C63.1515 8.81361 64.1128 8.94687 65.1027 8.94687H76.8478C76.9525 8.45193 77.0001 7.94748 77.0001 7.42399C77.0001 3.32176 73.6783 0 69.5761 0Z" fill="#656565"/>
</svg>
